<?xml version="1.0" encoding="UTF-8"?>
<!DOCTYPE score-partwise PUBLIC "-//Recordare//DTD MusicXML 3.1 Partwise//EN" "http://www.musicxml.org/dtds/partwise.dtd">
<score-partwise version="3.1">
  <work>
    <work-title>C大调音阶o</work-title>
    </work>
  <identification>
    <encoding>
      <software>MuseScore 3.6.2</software>
      <encoding-date>2021-10-24</encoding-date>
      <supports element="accidental" type="yes"/>
      <supports element="beam" type="yes"/>
      <supports element="print" attribute="new-page" type="yes" value="yes"/>
      <supports element="print" attribute="new-system" type="yes" value="yes"/>
      <supports element="stem" type="yes"/>
      </encoding>
    </identification>
  <defaults>
    <scaling>
      <millimeters>7</millimeters>
      <tenths>40</tenths>
      </scaling>
    <page-layout>
      <page-height>1697.14</page-height>
      <page-width>1200</page-width>
      <page-margins type="even">
        <left-margin>85.7143</left-margin>
        <right-margin>85.7143</right-margin>
        <top-margin>85.7143</top-margin>
        <bottom-margin>85.7143</bottom-margin>
        </page-margins>
      <page-margins type="odd">
        <left-margin>85.7143</left-margin>
        <right-margin>85.7143</right-margin>
        <top-margin>85.7143</top-margin>
        <bottom-margin>85.7143</bottom-margin>
        </page-margins>
      </page-layout>
    <word-font font-family="Edwin" font-size="10"/>
    <lyric-font font-family="Edwin" font-size="10"/>
    </defaults>
  <credit page="1">
    <credit-type>title</credit-type>
    <credit-words default-x="600" default-y="1611.86" justify="center" valign="top" font-size="22">C大调音阶o</credit-words>
    </credit>
  <part-list>
    <score-part id="P1">
      <part-name>长笛</part-name>
      <part-abbreviation>Fl.</part-abbreviation>
      <score-instrument id="P1-I1">
        <instrument-name>长笛</instrument-name>
        </score-instrument>
      <midi-device id="P1-I1" port="1"></midi-device>
      <midi-instrument id="P1-I1">
        <midi-channel>2</midi-channel>
        <midi-program>74</midi-program>
        <volume>78.7402</volume>
        <pan>0</pan>
        </midi-instrument>
      </score-part>
    </part-list>
  <part id="P1">
    <measure number="1" width="139.50">
      <print>
        <system-layout>
          <system-margins>
            <left-margin>50.00</left-margin>
            <right-margin>0.00</right-margin>
            </system-margins>
          <top-system-distance>170.00</top-system-distance>
          </system-layout>
        </print>
      <attributes>
        <divisions>1</divisions>
        <key>
          <fifths>0</fifths>
          </key>
        <time>
          <beats>4</beats>
          <beat-type>4</beat-type>
          </time>
        <clef>
          <sign>G</sign>
          <line>2</line>
          </clef>
        </attributes>
      <note default-x="77.22" default-y="-50.00">
        <pitch>
          <step>C</step>
          <octave>4</octave>
          </pitch>
        <duration>2</duration>
        <voice>1</voice>
        <type>half</type>
        <stem>up</stem>
        <notations>
          <ornaments>
            <trill-mark/>
            </ornaments>
          </notations>
        </note>
      <note default-x="107.46" default-y="-45.00">
        <pitch>
          <step>D</step>
          <octave>4</octave>
          </pitch>
        <duration>2</duration>
        <voice>1</voice>
        <type>half</type>
        <stem>up</stem>
        <notations>
          <slur type="start" placement="below" number="1"/>
          <ornaments>
            <trill-mark/>
            </ornaments>
          </notations>
        </note>
      </measure>
    <measure number="2" width="121.37">
      <note default-x="16.50" default-y="-50.00">
        <grace/>
        <pitch>
          <step>C</step>
          <octave>4</octave>
          </pitch>
        <voice>1</voice>
        <type>16th</type>
        <stem>up</stem>
        <beam number="1">begin</beam>
        <beam number="2">begin</beam>
        </note>
      <note default-x="27.00" default-y="-45.00">
        <grace/>
        <pitch>
          <step>D</step>
          <octave>4</octave>
          </pitch>
        <voice>1</voice>
        <type>16th</type>
        <stem>up</stem>
        <beam number="1">end</beam>
        <beam number="2">end</beam>
        <notations>
          <slur type="stop" number="1"/>
          </notations>
        </note>
      <note default-x="38.10" default-y="-40.00">
        <pitch>
          <step>E</step>
          <octave>4</octave>
          </pitch>
        <duration>2</duration>
        <voice>1</voice>
        <type>half</type>
        <stem>up</stem>
        <notations>
          <slur type="start" placement="below" number="1"/>
          <ornaments>
            <trill-mark/>
            </ornaments>
          </notations>
        </note>
      <note default-x="57.84" default-y="-45.00">
        <grace/>
        <pitch>
          <step>D</step>
          <octave>4</octave>
          </pitch>
        <voice>1</voice>
        <type>16th</type>
        <stem>up</stem>
        <beam number="1">begin</beam>
        <beam number="2">begin</beam>
        </note>
      <note default-x="68.33" default-y="-40.00">
        <grace/>
        <pitch>
          <step>E</step>
          <octave>4</octave>
          </pitch>
        <voice>1</voice>
        <type>16th</type>
        <stem>up</stem>
        <beam number="1">end</beam>
        <beam number="2">end</beam>
        <notations>
          <slur type="stop" number="1"/>
          </notations>
        </note>
      <note default-x="78.83" default-y="-35.00">
        <pitch>
          <step>F</step>
          <octave>4</octave>
          </pitch>
        <duration>2</duration>
        <voice>1</voice>
        <type>half</type>
        <stem>up</stem>
        <notations>
          <slur type="start" placement="below" number="1"/>
          <ornaments>
            <trill-mark/>
            </ornaments>
          </notations>
        </note>
      </measure>
    <measure number="3" width="119.27">
      <note default-x="14.40" default-y="-40.00">
        <grace/>
        <pitch>
          <step>E</step>
          <octave>4</octave>
          </pitch>
        <voice>1</voice>
        <type>16th</type>
        <stem>up</stem>
        <beam number="1">begin</beam>
        <beam number="2">begin</beam>
        </note>
      <note default-x="24.90" default-y="-35.00">
        <grace/>
        <pitch>
          <step>F</step>
          <octave>4</octave>
          </pitch>
        <voice>1</voice>
        <type>16th</type>
        <stem>up</stem>
        <beam number="1">end</beam>
        <beam number="2">end</beam>
        <notations>
          <slur type="stop" number="1"/>
          </notations>
        </note>
      <note default-x="36.00" default-y="-30.00">
        <pitch>
          <step>G</step>
          <octave>4</octave>
          </pitch>
        <duration>2</duration>
        <voice>1</voice>
        <type>half</type>
        <stem>up</stem>
        <notations>
          <slur type="start" placement="below" number="1"/>
          <ornaments>
            <trill-mark/>
            </ornaments>
          </notations>
        </note>
      <note default-x="55.74" default-y="-35.00">
        <grace/>
        <pitch>
          <step>F</step>
          <octave>4</octave>
          </pitch>
        <voice>1</voice>
        <type>16th</type>
        <stem>up</stem>
        <beam number="1">begin</beam>
        <beam number="2">begin</beam>
        </note>
      <note default-x="66.23" default-y="-30.00">
        <grace/>
        <pitch>
          <step>G</step>
          <octave>4</octave>
          </pitch>
        <voice>1</voice>
        <type>16th</type>
        <stem>up</stem>
        <beam number="1">end</beam>
        <beam number="2">end</beam>
        <notations>
          <slur type="stop" number="1"/>
          </notations>
        </note>
      <note default-x="76.73" default-y="-25.00">
        <pitch>
          <step>A</step>
          <octave>4</octave>
          </pitch>
        <duration>2</duration>
        <voice>1</voice>
        <type>half</type>
        <stem>up</stem>
        <notations>
          <slur type="start" placement="below" number="1"/>
          <ornaments>
            <trill-mark/>
            </ornaments>
          </notations>
        </note>
      </measure>
    <measure number="4" width="119.27">
      <note default-x="14.40" default-y="-30.00">
        <grace/>
        <pitch>
          <step>G</step>
          <octave>4</octave>
          </pitch>
        <voice>1</voice>
        <type>16th</type>
        <stem>up</stem>
        <beam number="1">begin</beam>
        <beam number="2">begin</beam>
        </note>
      <note default-x="24.90" default-y="-25.00">
        <grace/>
        <pitch>
          <step>A</step>
          <octave>4</octave>
          </pitch>
        <voice>1</voice>
        <type>16th</type>
        <stem>up</stem>
        <beam number="1">end</beam>
        <beam number="2">end</beam>
        <notations>
          <slur type="stop" number="1"/>
          </notations>
        </note>
      <note default-x="36.00" default-y="-20.00">
        <pitch>
          <step>B</step>
          <octave>4</octave>
          </pitch>
        <duration>2</duration>
        <voice>1</voice>
        <type>half</type>
        <stem>down</stem>
        <notations>
          <slur type="start" placement="above" number="1"/>
          <ornaments>
            <trill-mark/>
            </ornaments>
          </notations>
        </note>
      <note default-x="55.74" default-y="-25.00">
        <grace/>
        <pitch>
          <step>A</step>
          <octave>4</octave>
          </pitch>
        <voice>1</voice>
        <type>16th</type>
        <stem>up</stem>
        <beam number="1">begin</beam>
        <beam number="2">begin</beam>
        </note>
      <note default-x="66.23" default-y="-20.00">
        <grace/>
        <pitch>
          <step>B</step>
          <octave>4</octave>
          </pitch>
        <voice>1</voice>
        <type>16th</type>
        <stem>up</stem>
        <beam number="1">end</beam>
        <beam number="2">end</beam>
        <notations>
          <slur type="stop" number="1"/>
          </notations>
        </note>
      <note default-x="76.73" default-y="-15.00">
        <pitch>
          <step>C</step>
          <octave>5</octave>
          </pitch>
        <duration>2</duration>
        <voice>1</voice>
        <type>half</type>
        <stem>down</stem>
        <notations>
          <slur type="start" placement="above" number="1"/>
          <ornaments>
            <trill-mark/>
            </ornaments>
          </notations>
        </note>
      </measure>
    <measure number="5" width="119.27">
      <note default-x="14.40" default-y="-20.00">
        <grace/>
        <pitch>
          <step>B</step>
          <octave>4</octave>
          </pitch>
        <voice>1</voice>
        <type>16th</type>
        <stem>up</stem>
        <beam number="1">begin</beam>
        <beam number="2">begin</beam>
        </note>
      <note default-x="24.90" default-y="-15.00">
        <grace/>
        <pitch>
          <step>C</step>
          <octave>5</octave>
          </pitch>
        <voice>1</voice>
        <type>16th</type>
        <stem>up</stem>
        <beam number="1">end</beam>
        <beam number="2">end</beam>
        <notations>
          <slur type="stop" number="1"/>
          </notations>
        </note>
      <note default-x="36.00" default-y="-10.00">
        <pitch>
          <step>D</step>
          <octave>5</octave>
          </pitch>
        <duration>2</duration>
        <voice>1</voice>
        <type>half</type>
        <stem>down</stem>
        <notations>
          <slur type="start" placement="above" number="1"/>
          <ornaments>
            <trill-mark/>
            </ornaments>
          </notations>
        </note>
      <note default-x="55.74" default-y="-15.00">
        <grace/>
        <pitch>
          <step>C</step>
          <octave>5</octave>
          </pitch>
        <voice>1</voice>
        <type>16th</type>
        <stem>up</stem>
        <beam number="1">begin</beam>
        <beam number="2">begin</beam>
        </note>
      <note default-x="66.23" default-y="-10.00">
        <grace/>
        <pitch>
          <step>D</step>
          <octave>5</octave>
          </pitch>
        <voice>1</voice>
        <type>16th</type>
        <stem>up</stem>
        <beam number="1">end</beam>
        <beam number="2">end</beam>
        <notations>
          <slur type="stop" number="1"/>
          </notations>
        </note>
      <note default-x="76.73" default-y="-5.00">
        <pitch>
          <step>E</step>
          <octave>5</octave>
          </pitch>
        <duration>2</duration>
        <voice>1</voice>
        <type>half</type>
        <stem>down</stem>
        <notations>
          <slur type="start" placement="above" number="1"/>
          <ornaments>
            <trill-mark/>
            </ornaments>
          </notations>
        </note>
      </measure>
    <measure number="6" width="119.27">
      <note default-x="14.40" default-y="-10.00">
        <grace/>
        <pitch>
          <step>D</step>
          <octave>5</octave>
          </pitch>
        <voice>1</voice>
        <type>16th</type>
        <stem>up</stem>
        <beam number="1">begin</beam>
        <beam number="2">begin</beam>
        </note>
      <note default-x="24.90" default-y="-5.00">
        <grace/>
        <pitch>
          <step>E</step>
          <octave>5</octave>
          </pitch>
        <voice>1</voice>
        <type>16th</type>
        <stem>up</stem>
        <beam number="1">end</beam>
        <beam number="2">end</beam>
        <notations>
          <slur type="stop" number="1"/>
          </notations>
        </note>
      <note default-x="36.00" default-y="0.00">
        <pitch>
          <step>F</step>
          <octave>5</octave>
          </pitch>
        <duration>2</duration>
        <voice>1</voice>
        <type>half</type>
        <stem>down</stem>
        <notations>
          <slur type="start" placement="above" number="1"/>
          <ornaments>
            <trill-mark/>
            </ornaments>
          </notations>
        </note>
      <note default-x="55.74" default-y="-5.00">
        <grace/>
        <pitch>
          <step>E</step>
          <octave>5</octave>
          </pitch>
        <voice>1</voice>
        <type>16th</type>
        <stem>up</stem>
        <beam number="1">begin</beam>
        <beam number="2">begin</beam>
        </note>
      <note default-x="66.23" default-y="0.00">
        <grace/>
        <pitch>
          <step>F</step>
          <octave>5</octave>
          </pitch>
        <voice>1</voice>
        <type>16th</type>
        <stem>up</stem>
        <beam number="1">end</beam>
        <beam number="2">end</beam>
        <notations>
          <slur type="stop" number="1"/>
          </notations>
        </note>
      <note default-x="76.73" default-y="5.00">
        <pitch>
          <step>G</step>
          <octave>5</octave>
          </pitch>
        <duration>2</duration>
        <voice>1</voice>
        <type>half</type>
        <stem>down</stem>
        <notations>
          <slur type="start" placement="above" number="1"/>
          <ornaments>
            <trill-mark/>
            </ornaments>
          </notations>
        </note>
      </measure>
    <measure number="7" width="119.27">
      <note default-x="14.40" default-y="0.00">
        <grace/>
        <pitch>
          <step>F</step>
          <octave>5</octave>
          </pitch>
        <voice>1</voice>
        <type>16th</type>
        <stem>up</stem>
        <beam number="1">begin</beam>
        <beam number="2">begin</beam>
        </note>
      <note default-x="24.90" default-y="5.00">
        <grace/>
        <pitch>
          <step>G</step>
          <octave>5</octave>
          </pitch>
        <voice>1</voice>
        <type>16th</type>
        <stem>up</stem>
        <beam number="1">end</beam>
        <beam number="2">end</beam>
        <notations>
          <slur type="stop" number="1"/>
          </notations>
        </note>
      <note default-x="36.00" default-y="10.00">
        <pitch>
          <step>A</step>
          <octave>5</octave>
          </pitch>
        <duration>2</duration>
        <voice>1</voice>
        <type>half</type>
        <stem>down</stem>
        <notations>
          <slur type="start" placement="above" number="1"/>
          <ornaments>
            <trill-mark/>
            </ornaments>
          </notations>
        </note>
      <note default-x="52.24" default-y="5.00">
        <grace/>
        <pitch>
          <step>G</step>
          <octave>5</octave>
          </pitch>
        <voice>1</voice>
        <type>16th</type>
        <stem>up</stem>
        <beam number="1">begin</beam>
        <beam number="2">begin</beam>
        </note>
      <note default-x="62.73" default-y="10.00">
        <grace/>
        <pitch>
          <step>A</step>
          <octave>5</octave>
          </pitch>
        <voice>1</voice>
        <type>16th</type>
        <stem>up</stem>
        <beam number="1">end</beam>
        <beam number="2">end</beam>
        <notations>
          <slur type="stop" number="1"/>
          </notations>
        </note>
      <note default-x="76.73" default-y="15.00">
        <pitch>
          <step>B</step>
          <octave>5</octave>
          </pitch>
        <duration>2</duration>
        <voice>1</voice>
        <type>half</type>
        <stem>down</stem>
        <notations>
          <slur type="start" placement="above" number="1"/>
          <ornaments>
            <trill-mark/>
            </ornaments>
          </notations>
        </note>
      </measure>
    <measure number="8" width="121.37">
      <note default-x="16.50" default-y="10.00">
        <grace/>
        <pitch>
          <step>A</step>
          <octave>5</octave>
          </pitch>
        <voice>1</voice>
        <type>16th</type>
        <stem>up</stem>
        <beam number="1">begin</beam>
        <beam number="2">begin</beam>
        </note>
      <note default-x="27.00" default-y="15.00">
        <grace/>
        <pitch>
          <step>B</step>
          <octave>5</octave>
          </pitch>
        <voice>1</voice>
        <type>16th</type>
        <stem>up</stem>
        <beam number="1">end</beam>
        <beam number="2">end</beam>
        <notations>
          <slur type="stop" number="1"/>
          </notations>
        </note>
      <note default-x="38.10" default-y="20.00">
        <pitch>
          <step>C</step>
          <octave>6</octave>
          </pitch>
        <duration>2</duration>
        <voice>1</voice>
        <type>half</type>
        <stem>down</stem>
        <notations>
          <slur type="start" placement="above" number="1"/>
          <ornaments>
            <trill-mark/>
            </ornaments>
          </notations>
        </note>
      <note default-x="54.34" default-y="15.00">
        <grace/>
        <pitch>
          <step>B</step>
          <octave>5</octave>
          </pitch>
        <voice>1</voice>
        <type>16th</type>
        <stem>up</stem>
        <beam number="1">begin</beam>
        <beam number="2">begin</beam>
        </note>
      <note default-x="64.83" default-y="20.00">
        <grace/>
        <pitch>
          <step>C</step>
          <octave>6</octave>
          </pitch>
        <voice>1</voice>
        <type>16th</type>
        <stem>up</stem>
        <beam number="1">end</beam>
        <beam number="2">end</beam>
        <notations>
          <slur type="stop" number="1"/>
          </notations>
        </note>
      <note default-x="78.83" default-y="25.00">
        <pitch>
          <step>D</step>
          <octave>6</octave>
          </pitch>
        <duration>2</duration>
        <voice>1</voice>
        <type>half</type>
        <stem>down</stem>
        <notations>
          <ornaments>
            <trill-mark/>
            </ornaments>
          </notations>
        </note>
      </measure>
    <measure number="9" width="332.45">
      <print new-system="yes">
        <system-layout>
          <system-margins>
            <left-margin>-0.00</left-margin>
            <right-margin>0.00</right-margin>
            </system-margins>
          <system-distance>150.00</system-distance>
          </system-layout>
        </print>
      <note default-x="62.09" default-y="20.00">
        <grace/>
        <pitch>
          <step>C</step>
          <octave>6</octave>
          </pitch>
        <voice>1</voice>
        <type>16th</type>
        <stem>up</stem>
        <beam number="1">begin</beam>
        <beam number="2">begin</beam>
        </note>
      <note default-x="72.59" default-y="25.00">
        <grace/>
        <pitch>
          <step>D</step>
          <octave>6</octave>
          </pitch>
        <voice>1</voice>
        <type>16th</type>
        <stem>up</stem>
        <beam number="1">end</beam>
        <beam number="2">end</beam>
        </note>
      <note default-x="83.69" default-y="30.00">
        <pitch>
          <step>E</step>
          <octave>6</octave>
          </pitch>
        <duration>2</duration>
        <voice>1</voice>
        <type>half</type>
        <stem>down</stem>
        <notations>
          <slur type="start" placement="above" number="1"/>
          <ornaments>
            <trill-mark/>
            </ornaments>
          </notations>
        </note>
      <note default-x="182.68" default-y="25.00">
        <grace/>
        <pitch>
          <step>D</step>
          <octave>6</octave>
          </pitch>
        <voice>1</voice>
        <type>16th</type>
        <stem>up</stem>
        <beam number="1">begin</beam>
        <beam number="2">begin</beam>
        </note>
      <note default-x="193.17" default-y="30.00">
        <grace/>
        <pitch>
          <step>E</step>
          <octave>6</octave>
          </pitch>
        <voice>1</voice>
        <type>16th</type>
        <stem>up</stem>
        <beam number="1">end</beam>
        <beam number="2">end</beam>
        <notations>
          <slur type="stop" number="1"/>
          </notations>
        </note>
      <note default-x="207.17" default-y="35.00">
        <pitch>
          <step>F</step>
          <octave>6</octave>
          </pitch>
        <duration>2</duration>
        <voice>1</voice>
        <type>half</type>
        <stem>down</stem>
        <notations>
          <slur type="start" placement="above" number="1"/>
          <ornaments>
            <trill-mark/>
            </ornaments>
          </notations>
        </note>
      </measure>
    <measure number="10" width="286.86">
      <note default-x="16.50" default-y="30.00">
        <grace/>
        <pitch>
          <step>E</step>
          <octave>6</octave>
          </pitch>
        <voice>1</voice>
        <type>16th</type>
        <stem>up</stem>
        <beam number="1">begin</beam>
        <beam number="2">begin</beam>
        </note>
      <note default-x="27.00" default-y="35.00">
        <grace/>
        <pitch>
          <step>F</step>
          <octave>6</octave>
          </pitch>
        <voice>1</voice>
        <type>16th</type>
        <stem>up</stem>
        <beam number="1">end</beam>
        <beam number="2">end</beam>
        <notations>
          <slur type="stop" number="1"/>
          </notations>
        </note>
      <note default-x="38.10" default-y="40.00">
        <pitch>
          <step>G</step>
          <octave>6</octave>
          </pitch>
        <duration>2</duration>
        <voice>1</voice>
        <type>half</type>
        <stem>down</stem>
        <notations>
          <slur type="start" placement="above" number="1"/>
          <ornaments>
            <trill-mark/>
            </ornaments>
          </notations>
        </note>
      <note default-x="137.08" default-y="35.00">
        <grace/>
        <pitch>
          <step>F</step>
          <octave>6</octave>
          </pitch>
        <voice>1</voice>
        <type>16th</type>
        <stem>up</stem>
        <beam number="1">begin</beam>
        <beam number="2">begin</beam>
        </note>
      <note default-x="147.58" default-y="40.00">
        <grace/>
        <pitch>
          <step>G</step>
          <octave>6</octave>
          </pitch>
        <voice>1</voice>
        <type>16th</type>
        <stem>up</stem>
        <beam number="1">end</beam>
        <beam number="2">end</beam>
        <notations>
          <slur type="stop" number="1"/>
          </notations>
        </note>
      <note default-x="161.58" default-y="45.00">
        <pitch>
          <step>A</step>
          <octave>6</octave>
          </pitch>
        <duration>2</duration>
        <voice>1</voice>
        <type>half</type>
        <stem>down</stem>
        <notations>
          <slur type="start" placement="above" number="1"/>
          <ornaments>
            <trill-mark/>
            </ornaments>
          </notations>
        </note>
      </measure>
    <measure number="11" width="155.78">
      <note default-x="16.50" default-y="40.00">
        <grace/>
        <pitch>
          <step>G</step>
          <octave>6</octave>
          </pitch>
        <voice>1</voice>
        <type>16th</type>
        <stem>up</stem>
        <beam number="1">begin</beam>
        <beam number="2">begin</beam>
        </note>
      <note default-x="27.00" default-y="45.00">
        <grace/>
        <pitch>
          <step>A</step>
          <octave>6</octave>
          </pitch>
        <voice>1</voice>
        <type>16th</type>
        <stem>up</stem>
        <beam number="1">end</beam>
        <beam number="2">end</beam>
        <notations>
          <slur type="stop" number="1"/>
          </notations>
        </note>
      <note default-x="38.10" default-y="50.00">
        <pitch>
          <step>B</step>
          <octave>6</octave>
          </pitch>
        <duration>2</duration>
        <voice>1</voice>
        <type>half</type>
        <stem>down</stem>
        <notations>
          <slur type="start" placement="above" number="1"/>
          <ornaments>
            <trill-mark/>
            </ornaments>
          </notations>
        </note>
      </measure>
    <measure number="12" width="253.48">
      <note default-x="16.50" default-y="45.00">
        <grace/>
        <pitch>
          <step>A</step>
          <octave>6</octave>
          </pitch>
        <voice>1</voice>
        <type>16th</type>
        <stem>up</stem>
        <beam number="1">begin</beam>
        <beam number="2">begin</beam>
        </note>
      <note default-x="27.00" default-y="50.00">
        <grace/>
        <pitch>
          <step>B</step>
          <octave>6</octave>
          </pitch>
        <voice>1</voice>
        <type>16th</type>
        <stem>up</stem>
        <beam number="1">end</beam>
        <beam number="2">end</beam>
        <notations>
          <slur type="stop" number="1"/>
          </notations>
        </note>
      <note default-x="38.10" default-y="55.00">
        <pitch>
          <step>C</step>
          <octave>7</octave>
          </pitch>
        <duration>4</duration>
        <voice>1</voice>
        <type>whole</type>
        </note>
      <barline location="right">
        <bar-style>light-heavy</bar-style>
        </barline>
      </measure>
    </part>
  </score-partwise>
